<?xml version="1.0" encoding="UTF-8"?>
<!-- Created with Inkscape (http://www.inkscape.org/) -->
<svg width="900" height="900" version="1.1" viewBox="0 0 238.13 238.12" xmlns="http://www.w3.org/2000/svg" xmlns:cc="http://creativecommons.org/ns#" xmlns:dc="http://purl.org/dc/elements/1.1/" xmlns:rdf="http://www.w3.org/1999/02/22-rdf-syntax-ns#">
 <metadata>
  <rdf:RDF>
   <cc:Work rdf:about="">
    <dc:format>image/svg+xml</dc:format>
    <dc:type rdf:resource="http://purl.org/dc/dcmitype/StillImage"/>
    <dc:title/>
   </cc:Work>
  </rdf:RDF>
 </metadata>
 <g transform="translate(0,-58.875)">
  <path d="m76.452 70.08-7.587 5.6288c-0.91461 0.97101-1.4642 2.1556-1.9378 3.3814-0.57397 1.5714-1.0743 3.1847-1.4992 4.8035-0.12477 0.54652-0.28074 1.0854-0.42424 1.6293-4.5125 0.90663-9.0014 1.9456-13.465 3.077-8.2253 2.1088-16.335 4.6479-24.252 7.7236-1.6614 0.73974-2.8636 1.2074-4.3996 2.1203-0.46791 0.27763-0.9508 0.54528-1.3432 0.92266-7.4186 7.1743-6.9114 3.9688-7.295 8.4009l3.6765-3.0092c-0.59893 0.63105-1.0525 1.129-1.8192 1.9004-0.41176 0.41175 0.86408-0.78486 1.3382-1.1175 1.468-1.023 2.8699-1.628 4.4838-2.4208 7.957-3.3485 16.167-6.0359 24.514-8.2272 5.6599-1.4628 11.363-2.7747 17.112-3.8132-0.79607 2.8951-1.4979 5.8176-2.1904 8.7395-0.28698 0.34937-0.60516 0.68689-0.85721 1.0453h0.06238l0.69688-0.52905c-0.18093 0.77037-0.3681 1.5407-0.54902 2.3107-1.1324 4.7782-2.0638 9.6006-3.0701 14.406-0.909 4.593-1.7275 9.2017-2.6259 13.797-0.23084 1.5692-0.55526 3.1188-0.91212 4.6597-1.0668 0-2.1324-0.0249-3.2005-0.11978-2.2391-0.27202-4.5918-0.45232-6.557-1.6674-1.2072-0.9803-2.0688-2.0694-2.2335-3.6735l-7.1016 6.2213c0.55525 1.8148 1.3682 2.928 2.8162 4.122 2.0931 1.4245 4.6454 1.6086 7.0892 1.8707 2.4668 0.23896 4.9262 0.16222 7.3805-0.0499-1.2372 3.9942-2.9977 7.7977-4.885 11.52-2.2104 4.4337-5.0066 8.507-8.1236 12.337-1.8186 1.5497-3.737 2.9322-5.7166 4.2702-2.2884 1.3971-4.7877 2.8116-7.5583 2.7299-0.41176-0.025-0.82477-0.0956-1.2409-0.14287-1.2889-0.25891-2.4294-0.79096-3.4669-1.4898 3.5293-2.9556 7.8796-4.0525 5.8227-7.2201-0.81853-1.0472-1.9914-1.7222-3.1581-2.3192-1.9016-0.80106-3.9448-1.2318-6.0167-1.1172-4.2698 0.59519-3.6903 2.228-8.5291 7.2879-0.41176 0.41987-0.32442 1.4696-0.32442 1.9848 0.39304 2.1177 1.4143 3.83 2.8617 5.4129 1.929 2.0121 3.9797 3.6815 6.7429 4.3762 0.45543 0.0761 0.91024 0.18904 1.3682 0.22834 2.9647 0.24644 5.6705-1.1182 8.1273-2.6197 1.8436-1.2268 2.2909-1.4819 4.092-2.8524 5.064-3.8538 9.4768-8.5213 13.689-13.276 3.2242-4.0248 6.061-8.3349 8.3469-12.972 1.1249-2.2334 2.221-4.4872 3.1961-6.7926 2.9329-0.48663 5.8445-1.0834 8.7393-1.7521-0.06238 0.14911-0.08731 0.29946-0.13724 0.44857-0.87282 2.8496-1.5865 5.744-1.9384 8.7056-0.18717 1.9916 0.18716 3.824 1.1317 5.5695 1.3713 1.8573 3.4407 2.9678 5.3835 4.1223 2.3115 1.3842 4.7353 2.5524 7.2495 3.5125 1.0824 0.42362 2.2117 0.54963 3.3565 0.66026l6.0423-6.9789c-1.0737-0.0693-2.1306-0.16221-3.1587-0.51221-2.5061-0.84143-4.9187-1.9322-7.1646-3.3391-1.7731-1.0859-3.6803-2.145-4.9149-3.8724-0.83974-1.6523-1.0444-3.2358-0.83974-5.0788 0.19341-1.6061 0.51782-3.1918 0.90338-4.761 4.641-1.4367 9.2122-3.0969 13.782-4.7444 5.0216-1.7788 9.8804-3.9585 14.684-6.251 4.3653-2.0917 8.5665-4.4934 12.565-7.2201 1.594-1.1785 3.1556-2.4121 4.5512-3.8258 0.94767-0.95921 6.5907-5.9617 8.5459-9.1541 0.29946-0.49349 0.5303-1.0271 0.79857-1.5407 0.99633-2.4217 1.2028-5.0167 0.44295-7.546-0.60516-2.0213-1.0425-2.4782-2.1399-4.2956-0.59269-0.68234-1.1317-1.4143-1.7774-2.0442-3.223-3.1335-7.461-5.004-11.67-6.3821-1.1848-0.38743-2.3945-0.68869-3.5929-1.0326-8.6083-2.2234-17.157-1.8375-25.929-1.2529-3.8662 0.29073-7.695 0.8302-11.51 1.4603 0.58645-2.1387 1.1704-4.2779 1.7481-6.4203 0.48662-1.6033 0.95578-3.218 1.6252-4.7569 0.549-1.1896 1.2802-2.2501 2.1748-3.2081zm96.32 14.034-7.363 5.9546c-0.23083 1.072-0.48039 2.1508-0.8491 3.1827-0.3369 0.89189-0.65944 1.8072-1.06 2.6746-0.40553 0.9712-0.76301 1.9478-1.1143 2.9372-0.39304 1.0713-0.85347 2.1155-1.2796 3.174-5.945 0.43485-11.852 1.2971-17.711 2.3998-4.2836 0.93808-8.7006 1.7895-12.566 3.9569-2.3102 2.3475-4.6186 4.6951-6.9288 7.0424l7.4941-5.6371c-2.0494 1.9905-4.0983 3.9812-6.1471 5.9715 0.31194-0.2352 0.60516-0.49474 0.94144-0.70249 3.5355-2.2126 7.8004-2.9491 11.763-3.9867 6.7423-1.4069 13.565-2.421 20.443-2.7805-0.76737 1.7562-1.5922 3.4874-2.4063 5.2223-0.81354 1.9288-1.5653 3.8857-2.2759 5.8532-0.82789 2.1617-1.5285 4.3684-2.183 6.5894-0.78297 2.7722-1.6102 5.5355-2.3134 8.3291-0.85035 3.215-1.4193 6.4884-1.8118 9.7888-0.42424 3.4807-0.0998 6.97 0.53653 10.399 0.19341 0.96427 0.45545 1.8904 0.75989 2.789-2.9778 1.2262-6.013 2.3131-9.1542 3.0429-1.2266 0.21959-1.997 0.39615-3.2292 0.47789-1.9827 0.12977-3.966-0.10851-5.8944-0.56275-1.8554-0.55899-3.631-1.2588-4.7583-2.9329-0.97138-1.6752-1.2428-3.3047-1.161-5.2395 0.0936-1.1907 0.2745-2.3636 0.51158-3.5252 0.0624-0.0312 0.0624-0.0674 0.081-0.1017 0.55527-0.80562 0.85847-1.7374 1.2671-2.6154 0.40553-0.87237 0.71872-1.7924 1.1267-2.6663 0.2745-0.86346 0.6532-1.6782 0.98821-2.5181 0.418-0.59393 0.68004-1.2856 0.95017-1.9595 0.21837-0.54901 0.60518-1.0256 0.81044-1.5744 0.19964-0.3369 0.19964-0.70299 0.19964-1.0707 0.0936 0 0.44918-0.16033 0.44918-0.27512 0-0.0649-0.0811-0.12978-0.0811-0.19465-2e-3 -0.16035 0-0.32194 0-0.48226 0-0.0718-0.0624-0.1173-0.1123-0.17344l-7.0804 6.4287c-0.0624-0.0374-0.0624-0.0956-0.1123-0.093-0.0624 0.0867-0.0686 0.18841-0.15597 0.24519-0.24331-0.0374-0.24331 0.45482-0.24331 0.65158-0.0624 0.25891-0.18717 0.47851-0.31193 0.71122l-0.42424 0.31319c-1.3332 1.7589-2.0962 3.8608-2.9216 5.887-0.42424 1.2052-0.79047 2.4344-1.1105 3.6735-1.0743 0.7408-2.1817 1.4333-3.3353 2.0483-2.1611 1.0602-4.3615 2.0652-6.6924 2.696-1.5504 0.28825-3.1281 0.58146-4.6691 0.0842-1.5279-0.58084-2.7064-1.6374-3.6229-2.9921-1.0238-1.595-1.7394-3.3006-1.7394-5.2352 0-1.6928 0.17469-3.3866 0.61764-5.0237 0.39929-1.3642 0.89404-2.7025 1.4786-3.9994l5.5644-6.1747c-1.317-0.28199-2.488 0.11916-3.5767 0.84224-3.6329 3.281-6.9463 6.0078-9.0101 10.233-0.67443 1.6178-1.2596 3.2612-1.692 4.9602-0.36808 1.7164-0.5303 3.4843-0.4492 5.2393 0.06238 2.0666 1.0294 3.8941 2.1362 5.5782 1.0032 1.5168 2.3021 2.695 3.9473 3.4492 1.657 0.66825 3.3883 0.48289 5.1052 0.22024 2.4525-0.50847 4.7365-1.5812 6.9875-2.6493 2.2148-1.0925 4.283-2.4479 6.2407-3.9487 0.69126-0.57459 1.3757-1.1662 2.0557-1.7606-0.0624 0.55026-0.1123 1.0989-0.15597 1.693-0.0624 2.2276 0.26203 3.8677 1.4349 5.7557 1.3376 1.9114 3.1837 2.6579 5.3373 3.3138 2.0083 0.45919 4.0721 0.7677 6.139 0.69408 1.4505-0.0499 1.9296-0.17968 3.3908-0.42299 4.7378-1.0768 9.2565-2.9238 13.671-4.922 0.95953-0.45481 1.896-0.95198 2.8374-1.4389 0.64821 1.2392 1.3557 2.4527 2.1574 3.6523 2.1355 2.8022 4.8132 5.1898 7.8484 6.9789 0.68875 0.40428 1.4087 0.75146 2.1118 1.1257 4.4894 1.9849 9.3626 3.0876 14.271 3.2547 1.2178 0.0499 2.4344-0.025 3.6522-0.025 6.4484-0.36374 12.922-1.2505 19.131-3.0852 1.0874-0.3213 2.1536-0.7164 3.2298-1.075 5.5582-2.1836 10.716-5.4556 15.01-9.6325 2.8543-2.7766 5.6187-5.6426 8.4274-8.4644 2.1642-2.6297 4.7608-5.344 5.4552-8.8199 0.33066-1.634 0.1123-1.9324-0.18716-3.4999-0.24956-0.51283-0.4492-1.059-0.75927-1.5405-1.3682-2.1259-3.6478-3.4869-5.9786-4.3042-0.65626-0.22897-1.3363-0.38493-2.0058-0.57585-4.1713-0.99091-8.4485-0.95098-12.687-0.56274-2.6135 0.32068-5.26 0.73737-7.5877 2.0273-2.3557 2.3318-4.7889 4.5925-7.0723 6.9958-0.47414 0.49849 0.1123 1.4227 0.4804 1.7478 0.49909 0.44545 0.89464 0.51907 1.5154 0.74909l3.5979-3.9444c1.0974-0.25205 2.2223-0.42674 3.2885-0.64335 4.1494-0.51221 8.3407-0.63181 12.448 0.3132 0.63573 0.1753 1.2827 0.31442 1.9035 0.52467 2.1137 0.71291 4.2623 1.9279 5.4427 3.9021 0.24955 0.42299 0.39929 0.90208 0.59269 1.3543 0.0686 0.48974 0.1934 0.97468 0.1934 1.4685 0 3.3546-2.4806 6.2441-4.623 8.7479 0 0.0249-0.0686 0.0736-0.0936 0.093-3.6029 3.0426-7.6026 5.5763-11.987 7.3258-1.0706 0.38305-2.1299 0.80568-3.2136 1.1513-6.1303 1.9545-12.552 2.9456-18.966 3.229-1.1804 0.025-2.3589 0.063-3.538 0.025-4.7615-0.1778-9.4849-1.2451-13.828-3.2081-0.67628-0.36498-1.3688-0.70642-2.0301-1.1004-2.9216-1.7409-5.5026-4.0464-7.5327-6.7758-0.37432-0.5746-0.71497-1.1552-1.0556-1.735 2.1917-1.3548 4.3584-2.7511 6.4896-4.2027 3.8843-2.7016 7.3967-5.88 10.703-9.2558 9.035-9.2226 6.1858-5.9494 11.269-12.087 2.3576-3.0189 4.4882-6.2194 6.2825-9.6071 0.96453-1.8189 1.7294-3.4382 2.3015-5.4087 0.21836-0.7448 0.32442-1.5142 0.48662-2.2726 0-0.67218 0.0812-1.3521 0-2.0189-0.24331-1.9252-1.2964-3.6962-2.7482-4.9516-1.3938-1.2035-2.4232-1.5671-4.0789-2.3827-6.8602-2.6486-14.215-2.7658-21.466-2.7002-0.37434 0-0.74803 0.0437-1.123 0.0562 0.0936-0.20401 0.18715-0.40427 0.28074-0.60953 0.67441-1.4719 1.3295-2.9495 1.9253-4.4564 0.52405-1.2241 0.99571-2.4692 1.478-3.7117 0.36185-0.98179 0.76487-1.9491 1.1648-2.9159 0.34938-0.9075 0.73493-1.8031 0.99695-2.7424 0.28699-1.0793 0.5615-2.1613 0.87406-3.2334zm-85.541 4.7442c5.1807 0.03119 10.35 0.50847 15.402 1.7393 1.1766 0.33379 2.3676 0.61764 3.5299 0.99896 4.0452 1.3294 8.1242 3.1862 11.155 6.272 0.59893 0.60892 1.0899 1.3173 1.6296 1.9765 0.98947 1.7692 1.3713 2.1649 1.8454 4.1263 0.59269 2.4507 0.18717 4.9-0.91274 7.1355-0.29322 0.47977-0.54278 0.97794-0.86095 1.439v0.0251c-0.1435 0.11479-0.27451 0.22148-0.42424 0.34251-3.981 2.8256-8.1934 5.3052-12.574 7.4612-4.7746 2.2945-9.6121 4.4284-14.583 6.2638-4.9549 1.8178-9.9128 3.6295-14.972 5.142-0.86408 0.2402-1.7413 0.43048-2.6097 0.65589 0.90213-2.8602 1.8061-5.7188 2.6821-8.5869 1.0132-3.564 1.8473-7.1834 2.1911-10.881 0.24332-3.2685 0.38681-6.5629 0-9.8314-0.3369-2.5718-0.80917-5.1645-2.1405-7.4317-0.92023-1.473-1.9615-2.8848-3.606-3.5931-1.1454-0.34688-2.319-0.4835-3.4494 0-0.3057 0.13601-0.56774 0.24893-0.81478 0.4442 0.20588-0.81541 0.42423-1.6286 0.64197-2.4418 2.591-0.36247 5.1938-0.65265 7.8104-0.84642 1.6333-0.10423 3.2666-0.23521 4.9025-0.30883 1.725-0.07611 3.4532-0.11229 5.1801-0.1017zm-20.165 10.432c1.269 0.55525 2.1106 1.6859 2.8368 2.8397 1.2546 2.1521 1.6608 4.6183 1.9552 7.0552 0.35561 3.2022 0.20588 6.422-0.09357 9.6196-0.39304 3.6445-1.2159 7.217-2.2709 10.72-0.44296 1.4313-0.90213 2.8577-1.3513 4.2871-2.0145 0.42236-4.039 0.79813-6.0797 1.0878-0.77298 0.0998-1.5466 0.18654-2.3221 0.27076 0.90899-3.2978 1.6945-6.6208 2.1742-10.013 0.8516-4.5813 1.6308-9.1755 2.5798-13.738 0.83975-4.047 1.6514-8.1004 2.5754-12.129zm98.837 8.8156c5.6505 0.0973 11.395 0.70291 16.673 2.8314 1.5086 0.77704 2.4706 1.1404 3.7277 2.2642 1.2846 1.148 2.1455 2.7142 2.3015 4.4438 0 0.60391-0.0811 1.2128-0.0811 1.8197-0.15597 0.70386-0.27452 1.4206-0.47415 2.1118-0.54903 1.83-1.3058 3.4556-2.2042 5.1423-1.7681 3.3225-3.8867 6.44-6.232 9.3785-6.084 7.1929-1.0768 1.0299 0.46166 0.21712 1.1348-0.59892-1.7968 1.8332-2.7239 2.7214-2.4306 2.3301-5.0079 4.511-7.7467 6.471-4.2636 2.9602-8.6339 5.7654-13.22 8.1893-0.74117-1.6429-1.312-3.358-1.647-5.2183-0.57398-3.373-0.8279-6.7931-0.35562-10.2 0.42424-3.278 1.0469-6.5262 1.9172-9.7172 0.76551-2.792 1.5622-5.5771 2.3938-8.3501 0.69562-2.2195 1.4399-4.4184 2.2759-6.5897 0.69189-1.8423 1.3856-3.6876 2.1705-5.4932 0.92022-0.025 1.8411-0.0374 2.7613-0.025zm-42.856 0.83787c0.45544-0.44233-0.88093 0.91617-1.347 1.3503-0.0811 0.0761-0.15596 0.12976-0.2433 0.20399 0.59269-0.58144 0.82165-0.81496 1.584-1.5532zm-18.67 26.125c-0.0687 0.136-0.93457 1.0393-2.4699 2.5435 0-0.025 0.0624-0.063 0.0624-0.0936 0.9689-1.2836 2.5255-2.6921 2.4107-2.4503zm98.525 2.8102c-0.0624 0.0499-0.0936 0.093-0.13725 0.1385 0.11854-0.13227 0.21836-0.21961 0.13725-0.1385zm-186 24.53c-0.15597 0.16035-0.31194 0.32193-0.46791 0.48227 0.06239-0.0373 0.06239-0.0649 0.06239-0.1061 0.1123-0.14723 0.54278-0.51096 0.41176-0.37682zm9.7238 2.0271c-0.07487 0.0911-0.09358 0.1148-0.12478 0.12353zm-7.5365 5.1463c0.36809 0.25329 0.68814 0.55525 0.96202 0.90144-0.33066-0.28511-0.64884-0.58957-0.96202-0.90144zm54.453 17.17c-0.0749-0.0437-0.14973-0.0437-0.23083 0.025-6.5707 5.3696-6.4328 3.7927-6.6537 7.22-0.15597 1.2193-0.39304 2.4371-0.59268 3.6525-0.06238 0.2246-0.09357 0.44857-0.13725 0.6728-3.0845 0.0717-6.1558 0.48849-9.1879 1.0371-4.724 0.98661-9.4244 2.1795-13.904 4.0078-2.2541 0.98711-4.4608 2.0649-6.4927 3.4662v0 0l-5.6411 7.5588c1.9914-1.59 4.253-2.7587 6.5401-3.8514 4.4576-2.0408 9.1929-3.3322 13.962-4.3929 3.3877-0.64571 6.8253-1.1248 10.281-1.0919 1.3077 0.025 2.0719 0.0842 2.9603 0.18591-0.14349 0.59082-0.2745 1.1851-0.42424 1.7734-1.3357 5.0928-3.1419 10.041-5.1888 14.884-1.9952 4.6935-4.6841 9.0277-7.617 13.179-2.9697 4.2414-6.3018 8.198-9.7956 12.007 0.3369-0.46792-1.5678 1.4356-2.2884 2.044-2.1424 1.8048-4.3996 3.384-6.7342 4.922-3.1194 1.844-6.5289 3.4915-10.21 3.6904-0.58645 0.0312-1.1848-0.0249-1.7731-0.0249-0.29322-0.0312-0.58645-0.0998-0.88279-0.14724l6.7516-5.9589c0-0.16034-0.09358-0.32193-0.09358-0.48226-0.34937-1.2533-0.94955-2.3419-1.9671-3.1827-1.3532-1.1413-2.8973-1.8978-4.691-2.0018-0.33066 0-0.65695-0.0251-0.98386 0-4.9792 0.32816-8.0393 5.2935-11.104 8.5193-0.18093 0.27888-0.38057 0.5434-0.53654 0.83813-0.86033 1.6581-0.67192 3.5047 0.16221 5.1251 0.24331 0.33876 0.44296 0.70124 0.71434 1.0158 1.7038 1.9864 4.2717 2.8252 6.7803 3.1529 0.62638 0.0249 1.254 0.10851 1.8835 0.0849 3.8281-0.0956 7.3992-1.7238 10.67-3.589 3.2049-2.0663 6.3967-4.2445 9.1617-6.8941 2.8056-2.6881 5.5488-5.4374 8.3095-8.1724 0.73743-0.73094 1.4555-1.485 2.1823-2.2261 4.1182-4.4343 8.0463-9.0439 11.51-14.017 1.7244-2.4946 3.3465-5.0597 4.8051-7.7152 0.45544-0.1148 0.91274-0.23833 1.3676-0.3681 0.28698-0.0373 0.57397-0.0842 0.86594-0.11915 3.4051-0.30758 6.7984 0.0249 10.159 0.57147 3.3939 0.51533 6.6431 1.566 9.7993 2.8864 1.5765 0.79252 3.3989 1.5893 4.4882 3.06 0.12477 0.18155 0.21836 0.3893 0.33066 0.58395 0 0.0886 0.06238 0.17781 0.06238 0.26702-1.7806 1.0431-3.641 1.9604-5.5014 2.844-4.6311 2.1227-9.3844 3.9602-14.187 5.654l-5.5432 6.9747c4.802-1.7021 9.5416-3.5862 14.229-5.5823 3.2929-1.4648 6.5826-3.0109 9.483-5.1802 2.4637-2.436 4.9586-4.8398 7.3886-7.3091 1.128-1.1441 1.5547-2.6931 0.81917-4.1518-0.16222-0.22521-0.3057-0.46479-0.48663-0.67715-1.1461-1.3612-2.7794-2.1846-4.3653-2.9414l2.1954-2.0358c-0.43671-0.99584-0.55525-2.1123-0.30569-3.1697 0-0.0649 0.06238-0.12352 0.0749-0.18591 0.15598-0.0867 0.26827-0.17157 0.48663-0.29135 1.5797-0.8944 3.2754-1.4953 5.0746-1.7099 1.8679-0.13413 3.6715 0.37995 5.4084 1.0072 2.8306 1.1917 5.0834 3.2534 7.0773 5.5401 1.7032 2.1166 3.0264 4.5342 3.7701 7.1565 0.15597 0.52779 0.24955 1.0709 0.3868 1.6039 0.42424 2.1138 0.53654 4.2933 0.27451 6.4372-0.15597 1.2897-0.32443 1.7461-0.65008 2.9966-0.40553 1.2373-0.99385 2.3643-1.672 3.4322l-1.1061 1.0242c-1.2621 0.79676-2.5841 1.4718-3.9311 2.1162-3.4288 1.5617-7.1347 2.1738-10.839 2.662-3.689 0.34501-7.4841 0.42798-11.1-0.52094-0.57397-0.1516-1.1249-0.36996-1.6882-0.55463-1.7176-0.75321-3.8362-1.8562-4.1638-3.9403-0.08105-0.26577 0-0.53903 0-0.80825 0.39305-1.0253 0.13726-0.53715 0.76864-1.4728l-7.3506 5.7177c-0.43672 1.2002-0.29946 0.57585-0.43048 1.8748 0.06238 0.32816 0.08105 0.66824 0.17469 0.98611 0.70747 2.2538 2.8617 3.5181 4.9106 4.3463 0.59892 0.19278 1.1854 0.42236 1.7986 0.57958 3.7009 0.95822 7.5783 0.91811 11.362 0.65595 3.7333-0.3918 7.486-0.85359 10.965-2.3615 1.5722-0.70748 3.1518-1.4271 4.6186-2.3404 1.0706-0.66544 2.0657-1.4425 3.024-2.2726 0.18092 0.25641 0.37434 0.50533 0.6114 0.73218 0.29324 0.26389 0.56149 0.54902 0.88217 0.78728 1.9403 1.4721 4.3441 1.8401 6.718 1.8156 1.6689-0.078 2.0245-0.0562 3.7115-0.31319 2.7052-0.41552 5.3554-1.1528 7.967-1.9596 3.1063-1.069 6.0616-2.1472 8.6932-4.1899 4.0777-3.1736 1.2684-0.90943 8.9639-8.4981 1.5347-1.5142 2.9422-3.1738 3.9223-5.1085 0.9458-2.167 1.4418-4.1159 1.1149-6.5005-0.35561-2.0783-0.98511-4.0569-2.0569-5.887-1.0119-1.753-2.163-3.3999-3.6772-4.7611-1.3145-1.2118-2.7513-2.3081-4.442-2.9372-2.138-0.7755-4.3634-1.2208-6.6406-1.3077-2.1886-0.136-4.3934-0.14287-6.5489 0.32193-1.2004 0.19028-2.3383 0.54215-3.4457 1.0497-2.81 1.9649-1.0356 0.76725-6.333 6.1156-0.61766-1.0759-1.3164-2.1088-2.0981-3.0768-2.0813-2.3903-4.419-4.5595-7.3131-5.9251-1.7899-0.76443-3.6634-1.4082-5.6362-1.3755-1.9147 0.0674-3.7414 0.62326-5.4303 1.5319-0.56773 0.29074-1.4618 0.73675-2.0014 1.075-3.7508 2.3658-6.5963 6.2952-9.7151 9.1542-0.26827 0.35499-0.48663 0.73393-0.72183 1.109-2.0326-0.64142-4.1133-1.1246-6.202-1.5278-1.4979-0.26328-3.0015-0.48289-4.51-0.64335 0.81228-0.87849 1.9702-2.0902 3.9099-4.0122 0.86595-0.85746 1.4187-1.9444 1.672-3.1319 0-0.30259 0.09357-0.60142 0.09357-0.90544 0-1.7654-0.92022-3.2716-2.1449-4.4651-0.87094-0.71422-1.1436-1.0089-2.1617-1.5617-2.0407-1.1093-4.341-1.6423-6.6119-2.0187 0.58646-2.2895 1.1286-4.5868 1.5872-6.9069 0.06238-0.27825 0.12477-0.55525 0.17469-0.83382l0.31194-0.26265c0.06238-0.80332 0.1622-1.5992 0.24955-2.3996 0-0.0736 0.06238-0.1491 0.06238-0.22459 0.51158-0.938 0.44296-0.87325 0.13101-0.46106-0.21211-0.21212-0.4367-0.67821-0.66255-0.79999zm0.59893 0.78729c0-0.025 0.06238 0 0.06238 0.0249 0 0.025-0.06238 0.0562-0.06238 0.0805-6.15e-4 -0.0312 0-0.078 0-0.1017zm36.183 0.26702c-1.2939 0.11729-2.4718 0.42299-3.5674 1.1553-3.3359 2.3739-6.9563 5.0554-8.4318 8.93-0.24956 1.1738-0.24332 2.3508 0 3.5337l7.0174-6.3142v-0.11479c0.89401 0.0312 1.7531 0.26889 2.576 0.67305 1.3538 0.79089 2.4294 1.9396 3.4407 3.119 0.78173 1.0186 1.4836 2.101 2.0226 3.2672 0.24331 0.67891 0.66381 1.0869 1.3257 1.3374 1.8947-0.75627 3.5511-2.612 5.147-4.5666 1.0949-0.67621 2.2784-1.1748 3.5125-1.5319 1.3326-0.32379 2.6771-0.17969 3.986 0.16034 1.4143 0.43484 2.6621 1.2682 3.8843 2.0821 0.82727 0.5777 1.574 1.2652 2.4999 1.6845 0.87094 0.37184 1.6751 0.0692 2.4993-0.26702 0.95329-0.47165 1.8423-1.0667 2.7744-1.5785 0.67566-0.35001 1.41-0.54903 2.1699-0.50784 0.78671 0.10851 1.4823 0.53715 2.1193 0.98622 0.94206 0.79309 2.0251 1.3415 3.1712 1.769 1.9727 0.64809 4.0552 0.76426 6.1134 0.85915 2.251 0.025 4.4882 0.23644 6.7005 0.64335 3.6135 0.75627 7.0686 2.0737 10.476 3.4703 3.4463 1.4426 6.7716 3.1439 10.015 4.994 3.6478 2.0785 6.9881 4.6122 10.234 7.2626 2.0289 1.7296 3.9373 3.6167 5.5862 5.7178 0.96951 1.2346 1.2178 1.7034 2.052 3.0261 1.128 2.0392 2.12 4.1985 2.6515 6.4794 0.34314 1.4739 0.32443 1.9077 0.43672 3.407 0.0811 3.0016-0.45544 6.0023-1.7132 8.7394-0.25578 0.57084-0.58021 1.1114-0.87468 1.6674-0.33066 0.54589-0.64067 1.1023-0.99191 1.6379-0.26203 0.40741-0.54902 0.81281-0.84037 1.2145-4.6779 3.7687-9.9697 6.6259-15.306 9.3278-6.7815 3.3771-13.855 6.117-20.975 8.6801-7.9401 2.9519-16.077 5.2852-24.278 7.3767-7.1029 1.6895-14.325 2.9788-21.634 3.2334-1.3457 0.0562-2.6939 0.025-4.0403 0.025-5.2019-0.22461-10.597-0.56587-15.449-2.6536-0.63572-0.27326-1.2365-0.62924-1.8498-0.94387-1.0987-0.75477-2.2073-1.6391-2.3807-2.844 2.9722-1.3517 6.1827-2.0642 9.3645-2.7127 5.225-0.98293 10.541-1.0891 15.838-1.0074 5.1894 0.17281 10.362 0.60017 15.52 1.1851 2.4544 0.25766 4.8987 0.6139 7.3125 1.13 0.26203 0.0624 0.51159 0.12601 0.768 0.18154l6.2157-6.9748c-0.26203-0.0562-0.5303-0.1123-0.7942-0.16907-2.5043-0.5278-5.0572-0.78091-7.6082-0.9521-5.2294-0.42362-10.461-0.81697-15.702-1.0709-5.346-0.16658-10.708-0.11917-15.984 0.88453-2.7264 0.52094-5.4452 1.0503-8.0855 1.9257-0.64509 0.21462-3.5673 1.299-4.18 1.824-2.7345 2.351-5.2369 4.9598-7.854 7.4402-0.8098 1.0056-1.3513 1.4213-1.6296 2.7171-0.49287 2.3382 1.3083 3.9097 3.0826 4.9981 0.66567 0.31195 1.3108 0.66438 1.997 0.93545 5.0559 2.0054 10.593 2.3398 15.964 2.5266 1.3675-0.0251 2.7326 0 4.0995-0.0437 7.3562-0.26327 14.632-1.5116 21.791-3.1742 8.1859-2.041 16.318-4.302 24.248-7.2075 7.1122-2.524 14.176-5.2278 20.976-8.5193 5.3304-2.6094 10.623-5.3646 15.335-9.0147 4.5949-3.6221 2.0189-1.4813 9.7276-9.2261 1.8249-1.8332 3.2461-4.0185 4.4714-6.2849 0.27451-0.5827 0.57397-1.1523 0.81853-1.7478 1.181-2.8715 1.6583-5.989 1.4873-9.0822-0.17469-1.5661-0.17469-1.9964-0.56774-3.534-0.60516-2.3416-1.6333-4.5635-2.8374-6.6486-0.33688-0.52718-0.65819-1.0685-1.0176-1.583-1.9203-2.7562-4.3391-5.1307-6.8777-7.3088-3.2785-2.6784-6.6537-5.2336-10.294-7.4064-3.2592-1.9159-6.6287-3.6222-10.133-5.049-3.4226-1.4139-6.8646-2.7986-10.454-3.737-2.2272-0.52219-4.4901-0.78285-6.7803-0.78285-1.9577-0.0761-3.946-0.15161-5.8302-0.73656-1.0612-0.40364-2.07-0.89882-2.931-1.6546-0.75178-0.56149-1.5616-1.0516-2.4618-1.3332-0.95454-0.16033-1.6639-0.14536-2.5916 0.19029-0.99074 0.41051-1.8623 1.0306-2.7825 1.5701-0.38681 0.23021-0.74428 0.35686-1.1442 0.53779-0.27451 0.12788-0.41176 0.30757-0.74304 0.19465-0.92522-0.24332-1.6477-0.93957-2.4325-1.4475-1.297-0.85572-2.6091-1.7426-4.0702-2.2936-1.4181-0.44295-2.8867-0.64572-4.374-0.46541-1.4443 0.31193-2.8474 0.79194-4.1295 1.5406-1.6558 1.0102-3.1132 2.2688-4.505 3.6101-0.0624 0.19278-0.0624 0.37683-0.0998 0.66868 0.45543 0.976-0.12477 0.0499-0.27451-0.25829 0-0.0249 0-0.0249-0.0624-0.0375-0.92709 0.91635-1.8086 1.8811-2.6939 2.844 1.224-1.447 2.0276-2.5307 2.4999-3.1656-0.60517-1.0425-1.2758-2.0477-2.0438-2.9795-1.083-1.2672-2.2179-2.5181-3.6441-3.407-1.239-0.70786-2.5629-1.0652-3.9984-1.0324zm9.6864 7.4189c0.0624 0.10851 0.13726 0.21212 0.19341 0.3213 0.13101-0.12976 0.27451-0.24456 0.40551-0.37246 0.11231-0.82664 0-0.7723-0.59892 0.0499zm-21.685 6.2001v0c-6.26e-4 0 6.26e-4 0 0 0zm-31.683-4.833v0.11479h-0.11855zm2.8586 9.6831c0.88655 0.28637 1.7575 0.6245 2.576 1.0794 0.93956 0.52281 1.1492 0.7675 1.9415 1.4472 0.80604 0.87 1.506 1.9181 1.5871 3.153 0 0.17344 0 0.32505-0.06238 0.48289-1.478 0.70206-3.0084 1.2927-4.5512 1.8366-0.37433 0.14725-0.79046 0.23896-1.1947 0.34315-0.28075 0.025-0.5615 0.0312-0.84474 0.0668-0.45543 0.0499-0.90213 0.18842-1.3601 0.23646-0.15598 0.025-0.35561-0.11479-0.45543 0-0.49287 0.55962-0.95828 1.1452-1.4356 1.7184 0.06238-0.0761 0.06864-0.14724 0.09983-0.22459 1.3644-3.3294 2.5797-6.7145 3.6772-10.14zm57.721 3.555c-0.45544 0.46167-0.51159 0.4991-0.92834 0.91424 0-0.025 0.0624-0.0562 0.0624-0.0805 0.1123-0.14286 0.44295-0.43609 0.57397-0.55464 0.10609-0.093 0.40552-0.37931 0.31194-0.27949zm3.6566 4.0885c2.1892 0.0499 4.3191 0.45232 6.3761 1.1892 1.5722 0.58083 2.9366 1.5697 4.1669 2.6917 1.4655 1.2787 2.5548 2.8447 3.5 4.5283 1.03 1.7494 1.5547 3.6494 1.8323 5.6415 0.21212 2.1669-0.46167 4.1292-1.4181 6.0309-0.18092 0.32194-0.418 0.60954-0.62387 0.91418-2.4294 1.8625-5.2219 3.0595-8.0724 4.1223-3.1593 1.0661-6.4035 2.008-9.7363 2.3233-0.56773 0.0562-1.1467 0.0624-1.7188 0.093-2.1555 0.0249-4.4152-0.21025-6.1895-1.5616-0.26827-0.20837-0.50534-0.46291-0.75926-0.694-0.21212-0.21898-0.38057-0.45605-0.53654-0.70255 0.18093-0.17968 0.35561-0.38244 0.54278-0.559 2.0713-2.2662 3.8138-4.7558 4.6061-7.7746 0.1061-0.51346 0.24331-1.0219 0.33066-1.5404 0.47415-2.7221 0.31194-5.5167-0.27451-8.2062-0.0624-0.13601-0.0686-0.27327-0.1061-0.41052l2.1237-1.8666c-0.27451-1.2554-0.1123-2.5125 0.0749-3.7623 1.9309-0.42799 3.8986-0.52406 5.8726-0.45668zm-41.491 17.106c0 0.0249-0.06238 0.063-0.06864 0.0886-0.23707 0.25828-0.99197 0.99047-0.74741 0.74061 0.27451-0.27763 0.54278-0.55276 0.81478-0.82946zm53.423 6.2636c-0.0873 0.0886-0.15596 0.18655-0.23706 0.27513-0.3993 0.41488-1.634 1.6257-1.2328 1.2105 0.74866-0.77898 0.86719-0.87219 1.473-1.4856zm-102.57 11.076c-0.17469 0.1884-0.34937 0.38306-0.52406 0.57148-0.06239 0.0375-0.06863 0.0693-0.1123 0.11478 0.2246-0.21897 0.418-0.46104 0.6376-0.68564zm-26.765 4.6893c1.5953-0.0249 2.946 0.57834 4.1463 1.5829 0.89402 0.73326 1.3108 1.6743 1.4986 2.7846v0.0886c-1.8598-0.35936-3.6815-1.0818-4.8981-2.5986-0.21836-0.27451-0.36809-0.5983-0.55526-0.89708-0.13725-0.35499-0.17469-0.64853-0.24331-0.9564 0-1e-3 0.06239 0 0.06239 0zm-4.3447 1.6674c-2.1986 2.1222-1.4405 1.1192 0 0zm83.409 14.525c-0.47416 0.50536-0.98136 0.98493-1.4767 1.4726 0.40553-0.55088 0.90401-0.93388 1.4767-1.4726z" fill="#fdfdfd" stroke="#fefefe" stroke-linecap="round" stroke-linejoin="round" stroke-width="4.2"/>
 </g>
</svg>
